<svg height='100px' width='100px'  fill="#000000" xmlns="http://www.w3.org/2000/svg" xmlns:xlink="http://www.w3.org/1999/xlink" version="1.1" x="0px" y="0px" viewBox="0 0 95 95" enable-background="new 0 0 95 95" xml:space="preserve"><g><path d="M47.5,62.137c9.573,0,17.361-7.789,17.361-17.362c0-9.573-7.788-17.361-17.361-17.361s-17.361,7.789-17.361,17.361   C30.139,54.348,37.927,62.137,47.5,62.137z M47.5,31.955c7.068,0,12.82,5.751,12.82,12.82c0,7.069-5.752,12.82-12.82,12.82   s-12.82-5.751-12.82-12.82C34.68,37.706,40.432,31.955,47.5,31.955z"></path><path d="M47.5,89.839c23.346,0,42.34-18.993,42.34-42.339S70.846,5.161,47.5,5.161S5.16,24.154,5.16,47.5   S24.154,89.839,47.5,89.839z M47.5,85.298c-8.601,0-16.535-2.893-22.894-7.749c6.563-5.006,14.591-7.744,22.894-7.744   s16.329,2.739,22.892,7.745C64.034,82.405,56.1,85.298,47.5,85.298z M47.5,9.702c20.842,0,37.798,16.956,37.798,37.798   c0,10.376-4.204,19.787-10.996,26.624c-0.036,0.037-0.072,0.075-0.109,0.112c-0.095,0.095-0.195,0.185-0.292,0.278   c-7.486-5.979-16.781-9.25-26.4-9.25s-18.914,3.271-26.4,9.25c-0.099-0.096-0.202-0.188-0.3-0.285   c-0.022-0.023-0.045-0.046-0.067-0.07C13.92,67.319,9.702,57.894,9.702,47.5C9.702,26.658,26.658,9.702,47.5,9.702z"></path></g></svg>