<svg height='100px' width='100px'  fill="#000000" xmlns="http://www.w3.org/2000/svg" xmlns:xlink="http://www.w3.org/1999/xlink" version="1.1" x="0px" y="0px" viewBox="0 0 100 100" enable-background="new 0 0 100 100" xml:space="preserve"><g><path d="M88.019,85.659H80.92V51.805c2.684,0.943,5.795,0.215,7.755-2.067c2.561-2.989,2.205-7.465-0.769-10.012l-33.29-28.399   c-2.673-2.29-6.559-2.29-9.236,0.003L12.097,39.722c-2.994,2.566-3.32,7.043-0.774,10.014c1.913,2.23,4.991,3.05,7.757,2.071   v33.852h-7.099c-1.307,0-2.366,1.06-2.366,2.366s1.06,2.366,2.366,2.366c3.016,0,73.285,0,76.038,0c1.307,0,2.366-1.06,2.366-2.366   S89.326,85.659,88.019,85.659z M18.258,46.908c-1.021,0.875-2.51,0.717-3.342-0.253c-0.849-0.991-0.738-2.484,0.257-3.336   l33.283-28.393c0.896-0.768,2.192-0.768,3.085-0.003l33.29,28.399c0.974,0.835,1.115,2.327,0.252,3.334   c-0.848,0.987-2.347,1.102-3.34,0.254c-0.906-0.773-27.992-23.869-30.208-25.758c-0.885-0.754-2.186-0.754-3.071,0   C46.2,23.082,19.457,45.886,18.258,46.908z M66.564,85.659h-9.465V61.838h9.465V85.659z M76.187,85.659h-4.89V59.471   c0-1.307-1.059-2.366-2.366-2.366H54.733c-1.307,0-2.366,1.059-2.366,2.366v26.187H23.813V48.392L50,26.062l26.187,22.33V85.659z"></path><path d="M45.267,57.105H31.069c-1.307,0-2.366,1.059-2.366,2.366v14.198c0,1.307,1.06,2.366,2.366,2.366h14.198   c1.307,0,2.366-1.06,2.366-2.366V59.471C47.634,58.164,46.574,57.105,45.267,57.105z M42.901,71.303h-9.465v-9.465h9.465V71.303z"></path></g></svg>