<svg height='100px' width='100px'  fill="#000000" xmlns="http://www.w3.org/2000/svg" data-name="Layer 1" viewBox="0 0 48 48" x="0px" y="0px"><title>tie necktie fashion</title><path d="M28.22,17.94h0L27,11,28,7.24a1,1,0,0,0-.18-.86A1,1,0,0,0,27,6H21a1,1,0,0,0-.79.38,1,1,0,0,0-.18.86L21,11,17,33.83a1,1,0,0,0,.23.82l6,7a1,1,0,0,0,1.52,0l6-7a1,1,0,0,0,.23-.82ZM22.84,12h2.32l1,5.54L21.4,20.27ZM21,22.84l5.53-3.2.78,4.49L20,28.33ZM25.72,8l-.5,2H22.78l-.5-2ZM24,39.46l-4.93-5.75.48-2.81,8.08-4.67,1.3,7.48Z"></path></svg>