<svg height='100px' width='100px'  fill="#000000" xmlns="http://www.w3.org/2000/svg" data-name="Layer 1" viewBox="0 0 64 64" x="0px" y="0px"><title>work_3</title><path d="M28.26,63A2,2,0,0,0,30,64h4a2,2,0,0,0,1.74-1l9-15.91A2,2,0,0,0,45,45.63L37.42,13.55a4.12,4.12,0,0,0,2.22-3.43L40,4.42a4.33,4.33,0,0,0-1.13-3.23A3.67,3.67,0,0,0,36.16,0H27.84a3.67,3.67,0,0,0-2.7,1.19A4.33,4.33,0,0,0,24,4.42l.35,5.7a4.12,4.12,0,0,0,2.22,3.43L19.05,45.63a2,2,0,0,0,.21,1.44ZM28,4h8a.72.72,0,0,1,0,.17l-.35,5.7a.24.24,0,0,1,0,.13H28.4a.23.23,0,0,1,0-.13L28,4.17A.72.72,0,0,1,28,4Zm2.56,10h2.84l7.45,31.78L32.83,60H31.17l-8-14.22Z"></path></svg>